<?xml version="1.0" encoding="utf-8"?>
<!-- Generator: Adobe Illustrator 21.0.0, SVG Export Plug-In . SVG Version: 6.00 Build 0)  -->
<svg version="1.1" id="Layer_1" xmlns="http://www.w3.org/2000/svg" xmlns:xlink="http://www.w3.org/1999/xlink" x="0px" y="0px"
	 viewBox="0 0 581 1280" style="enable-background:new 0 0 581 1280;" xml:space="preserve">
<style type="text/css">
	.st0{fill:#FFFFFF;}
</style>
<g transform="translate(0.000000,1280.000000) scale(0.100000,-0.100000)">
	<path d="M2560,12555c-610-74-1130-316-1552-723c-153-148-257-272-369-440c-293-441-439-924-439-1453c0-550,138-1018,428-1455
		c210-315,450-554,777-774c86-58,109-79,154-144c100-145,161-312,161-441c0-84-61-188-260-445c-95-123-115-243-65-391
		c34-98,63-141,135-193c87-64,140-82,198-68c90,22,185,33,195,23c14-14,10-103-9-238c-9-62-14-129-12-150c3-21,56-143,118-270
		l114-233l-48-119c-30-77-45-125-39-134c4-8,85-98,179-200c230-249,234-263,121-467c-29-52-75-141-101-197l-49-101l72-151
		c69-145,71-152,71-226c0-77,0-78-72-209c-39-72-120-211-180-308c-59-97-108-180-108-185c0-4,48-60,106-123c110-118,144-174,144-237
		c0-42-27-90-68-120s-262-318-262-340c0-10,45-75,101-143c118-146,149-192,149-221c0-12-22-51-49-88c-71-97-201-300-201-315
		c0-7,13-25,30-41c16-16,30-34,30-40c0-10,210-199,913-819c95-83,172-145,177-140s207,272,449,593l441,584v3016v3016l90,38
		c107,46,304,158,415,235c507,352,859,837,1034,1421c71,237,104,479,105,756c0,179-19,443-31,431c-3-3,1-53,8-113
		c19-156,16-490-5-643c-65-476-225-880-494-1242c-48-65-69-86-83-83c-11,2-17,0-14-6c4-5,11-6,17-3c7,4,8,2,4-5c-4-6-12-9-17-6
		s-7,0-4-7s-44-64-107-129c-82-85-89-91-26-22c49,52,85,99,82,104s-51-37-106-93l-100-103l87,94c47,51,109,122,137,157
		c28,35,54,61,58,59s7,1,7,8s39,69,86,139c341,508,489,1126,422,1765c-34,319-108,577-250,868c-266,545-691,957-1275,1239
		c-243,116-441,183-650,217c-66,11-78,15-55,19c20,4-10,10-86,18C3042,12573,2697,12572,2560,12555z M4720,7957c0-2-15-16-32-33
		l-33-29l29,33C4712,7958,4720,7965,4720,7957z M4670,7947c0-2-12-14-27-28l-28-24l24,28C4662,7948,4670,7955,4670,7947z M4640,7886
		c0-2-8-10-17-17c-16-13-17-12-4,4S4640,7894,4640,7886z"/>
	<path d="M3318,12533c6-2,18-2,25,0c6,3,1,5-13,5S3311,12536,3318,12533z"/>
	<path d="M3378,12523c6-2,18-2,25,0c6,3,1,5-13,5S3371,12526,3378,12523z"/>
	<path d="M3438,12513c7-3,16-2,19,1c4,3-2,6-13,5C3433,12519,3430,12516,3438,12513z"/>
	<path d="M4000,12330c8-5,20-10,25-10c6,0,3,5-5,10s-19,10-25,10C3990,12340,3992,12335,4000,12330z"/>
	<path d="M4160,12255c0-2,18-14,40-25s40-18,40-15c0,2-18,14-40,25S4160,12258,4160,12255z"/>
	<path d="M4255,12203c6-6,28-20,50-32c22-13,31-15,20-6C4303,12183,4239,12218,4255,12203z"/>
	<path d="M4355,12143c6-6,45-34,88-62c128-85,265-201,392-332c241-248,381-461,564-859l11-25l-6,25c-3,14-41,97-84,185
		c-170,347-410,651-699,883C4511,12046,4317,12182,4355,12143z"/>
	<path d="M5413,10848c19-50,77-244,88-291c7-31,14-55,17-53c10,11-91,356-105,356C5410,10860,5410,10854,5413,10848z"/>
	<path d="M5522,10475c0-11,4-33,8-50c7-27,8-27,8-5c0,14-4,36-8,50C5524,10490,5522,10491,5522,10475z"/>
	<path d="M5542,10365c0-16,2-22,5-12c2,9,2,23,0,30C5544,10389,5542,10382,5542,10365z"/>
	<path d="M4930,8211c-20-30-13-53,9-27c12,14,24,56,16,56C4953,8240,4942,8227,4930,8211z"/>
</g>
<circle class="st0" cx="279.8" cy="157.7" r="52.7"/>
</svg>
